<svg width="398" height="350" viewBox="0 0 398 350" fill="none" xmlns="http://www.w3.org/2000/svg">
<path fill-rule="evenodd" clip-rule="evenodd" d="M150.82 20.5239L138.449 26.924L127.037 115.5L137.462 116.833L127.037 115.501L121.862 155.689L134.189 164.264L151.549 155.276C143.74 177.899 149.512 203.978 168.309 221.216L168.322 221.228C181.918 233.648 199.509 238.926 216.516 237.315L216.529 237.314C231.238 235.898 245.596 229.295 256.413 217.54L243.905 206.118C236.057 214.647 225.644 219.453 214.902 220.489C202.472 221.664 189.695 217.816 179.793 208.773C161.352 191.854 160.148 163.271 177.115 144.909C179.858 141.941 182.906 139.421 186.167 137.353L193.17 133.727C208.98 127.22 227.819 129.936 241.229 142.231L241.231 142.233C245.786 146.414 249.284 151.293 251.707 156.51L264.538 150.597L258.304 156.807V322H266.788V330.451H328.001L336.485 322V290.897H319.518V313.548H275.271V165.258H319.518V267.104H336.485V156.807L328.001 148.355H266.788L266.663 148.479C263.34 141.628 258.675 135.26 252.725 129.799L252.723 129.797C245.356 123.042 236.799 118.391 227.794 115.812L266.073 96.0165L266.117 81.0375L231.817 63.0446L231.798 63.0349L223.969 58.9032L223.951 58.894L213.643 53.4848L213.61 53.4675L207.586 50.3403L199.745 65.3299L205.752 68.4484L216.035 73.8446L223.874 77.9813L223.893 77.991L243.854 88.4621L200.563 110.85L202.181 113.955L202.178 113.955L200.559 110.852L185.994 118.393C183.142 119.606 180.365 121.04 177.69 122.692L140.755 141.815L143.867 117.652L143.867 117.651L153.722 41.1566L177.904 53.8586L185.818 38.9068L150.82 20.5239ZM101.983 236.086L110.466 227.635H169.517V244.537H118.95V313.548H232.809V236.086H249.777V322L241.293 330.451H110.466L101.983 322V236.086ZM94.7182 171.066C90.5161 160.479 91.9334 148.648 97.4981 136.958L112.829 144.201C108.637 153.007 108.506 159.834 110.497 164.851C112.487 169.865 117.265 174.752 126.374 178.309L120.181 194.046C108.079 189.32 98.9213 181.656 94.7182 171.066ZM69.6065 134.255C60.7818 153.074 58.9249 171.372 65.2784 187.374C71.6323 203.377 85.5494 215.45 104.904 223.144L111.193 207.445C94.8285 200.94 85.223 191.65 81.0565 181.157C76.8895 170.662 77.5143 157.328 84.9793 141.41L69.6065 134.255ZM297.009 79.2526C299.721 90.317 296.695 101.847 289.581 112.669L275.386 103.41C280.745 95.2576 281.812 88.5098 280.526 83.2621C279.24 78.0165 275.173 72.5166 266.626 67.7421L274.925 52.999C286.274 59.3388 294.297 68.186 297.009 79.2526ZM316.796 119.143C328.13 101.713 332.473 83.8371 328.368 67.1159C324.263 50.3962 312.13 36.5325 294.016 26.2733L285.63 40.9674C300.943 49.6405 309.193 60.1606 311.886 71.1314C314.579 82.1008 312.135 95.2219 302.555 109.952L316.796 119.143Z" fill="#242424"/>
</svg>
