<svg width="398" height="350" viewBox="0 0 398 350" fill="none" xmlns="http://www.w3.org/2000/svg">
<path fill-rule="evenodd" clip-rule="evenodd" d="M282.86 20.4324C249.779 13.7121 217.506 31.2378 198.556 60.4504ZM198.556 60.4504C198.025 60.3037 197.492 60.1409 196.96 59.9623C189.003 57.2943 182.159 51.4256 179.061 45.6169L164.433 51.7268C168.79 65.745 166.448 73.1488 163.422 77.1252C160.232 81.317 154.754 83.75 148.722 84.6353C146.186 84.5796 143.523 84.6945 140.729 84.9864L141.115 100.855C143.695 100.998 146.532 100.933 149.472 100.595C159.525 101.102 164.203 105.404 166.671 110.017C169.52 115.343 169.921 122.167 169.146 127.131L184.21 131.763C186.907 126.058 189.956 123.017 192.718 121.387C195.473 119.761 198.559 119.176 201.956 119.428C209.116 119.96 216.788 124.183 221.677 128.257L232.138 116.257C222.103 107.107 217.248 98.9917 216.517 91.9294C215.84 85.4011 218.512 77.625 228.943 68.3863L220.1 58.4023C236.237 40.4425 258.359 31.7034 279.692 36.0377L279.693 36.038C291.474 38.4288 301.828 44.5358 310.122 53.3263L321.704 42.3982C311.367 31.4426 298.153 23.5362 282.862 20.4327M202.918 77.2462C199.123 77.0105 195.404 76.2358 191.898 75.06C188.617 73.9601 185.433 72.4859 182.437 70.7124C181.67 76.943 179.497 82.2961 176.093 86.7689C174.679 88.627 173.11 90.2554 171.435 91.6796C175.423 94.6335 178.489 98.35 180.712 102.506C181.761 104.467 182.603 106.487 183.268 108.522C183.714 108.226 184.166 107.944 184.624 107.673C190.662 104.11 197.109 103.101 203.136 103.548C203.139 103.548 203.143 103.549 203.146 103.549C201.881 100.319 201.032 96.9931 200.678 93.57C200.096 87.9586 200.876 82.512 202.918 77.2462ZM340.789 68.7127C348.384 87.0709 350.614 108.71 346.172 130.664L346.171 130.668C337.878 171.541 308.288 202.873 273.233 209.045L273.208 226.001L263.689 233.798L250.316 231.13C249.315 241.381 245.921 249.309 240.837 255.693C234.677 263.431 226.461 268.275 219.671 272.26L219.584 272.311C212.39 276.533 206.793 279.818 202.762 284.546C199.097 288.845 196.377 294.829 196.726 305.186L180.811 305.721C180.343 291.832 184.133 281.852 190.645 274.215C196.458 267.396 204.152 262.893 210.577 259.132C210.926 258.928 211.27 258.726 211.611 258.526C218.676 254.38 224.324 250.868 228.38 245.774C231.554 241.788 234.066 236.389 234.596 227.995L221.17 225.318L216.115 213.075L223.806 201.606C217.86 198.271 212.43 194.119 207.585 189.309C194.852 220.38 167.418 242.343 137.073 243.013L137.212 264.196L126.531 271.731L111.897 266.414C110.851 274.982 107.878 281.735 103.496 287.238C97.9548 294.197 90.5817 298.537 84.6332 302.032C78.2392 305.788 73.4532 308.604 70.0228 312.63C66.9746 316.207 64.6504 321.224 64.9493 330.108L49.0346 330.643C48.6168 318.227 52.0106 309.216 57.9026 302.302C63.1197 296.179 70.0105 292.143 75.6334 288.85C75.9488 288.665 76.2602 288.482 76.5671 288.302C82.791 284.646 87.6003 281.638 91.0389 277.319C93.8699 273.764 96.1246 268.824 96.3682 260.77L79.752 254.732L77.0922 241.379L92.8758 226.915C90.1156 224.536 87.5158 221.936 85.0978 219.1C68.3855 199.583 61.0513 170.674 67.0252 141.277C74.1155 106.376 98.2963 79.2399 127.708 71.4843L131.768 86.8818C109.089 92.8619 88.7038 114.551 82.6301 144.448C77.537 169.51 83.9751 193.31 97.1973 208.747L97.2099 208.762C99.8181 211.822 102.712 214.544 105.868 216.964L101.719 222.375L106.974 228.11L111.198 220.552C112.437 221.245 113.643 221.883 114.862 222.475C118.28 224.097 121.954 225.323 125.822 226.11C154.028 231.845 184.266 211.466 195.228 176.697L197.728 177.486C193.871 171.891 190.622 165.777 188.045 159.292L202.843 153.411C211.209 174.466 227.418 189.578 247.669 193.693L244.498 209.298C242.553 208.902 240.643 208.431 238.768 207.886L235.986 212.035L257.299 216.286L257.324 198.946L264.518 198.956L264.208 194.114C294.041 192.202 322.762 165.961 330.566 127.502C334.403 108.531 332.413 90.1215 326.075 74.8002L340.789 68.7127ZM106.451 236.073L97.5291 244.25L121.213 252.856L121.138 241.389C116.561 240.344 112.157 238.82 107.997 236.843L107.936 236.814C107.434 236.571 106.94 236.323 106.451 236.073ZM242.668 77.0114L274.866 88.4281L278.128 79.2286L293.136 84.5501L289.874 93.7497L322.073 105.166L316.751 120.175L301.505 114.769C295.273 123.77 286.922 131.017 278.22 136.811C279.845 140.271 281.482 143.394 282.972 145.856L287.095 152.667L273.473 160.913L269.35 154.102C267.717 151.404 266.031 148.223 264.396 144.821C255.583 149.281 246.943 152.594 239.923 154.979L232.385 157.541L227.262 142.464L234.8 139.902C241.669 137.568 249.94 134.367 258.173 130.119C255.929 124.043 254.102 117.967 253.329 113.134L252.072 105.272L267.68 102.775L237.346 92.0196L242.668 77.0114ZM267.806 102.82L269.053 110.619C269.512 113.483 270.589 117.376 272.077 121.705C277.273 117.988 281.957 113.826 285.773 109.191L267.806 102.82ZM91.7916 141.444C97.0534 126.335 105.271 112.707 118.659 102.739L128.169 115.511C118.036 123.055 111.374 133.633 106.83 146.681L91.7916 141.444ZM145.136 144.447L132.168 162.805L145.739 167.319L145.136 144.447ZM146.035 184.2V199.893H161.959V178.457C161.959 178.387 161.958 178.317 161.956 178.247L160.521 123.808C160.287 114.955 148.909 111.506 143.799 118.74L112.889 162.498L101.303 180.226L114.632 188.937L122.783 176.465L146.035 184.2Z" fill="#242424"/>
</svg>
