<svg width="398" height="350" viewBox="0 0 398 350" fill="none" xmlns="http://www.w3.org/2000/svg">
<path fill-rule="evenodd" clip-rule="evenodd" d="M20.4426 25.5926C19.4623 25.5926 18.6111 26.4216 18.6111 27.4387V230.592H19.0138V245.777H18.6605V257.681C18.6605 258.049 18.9629 259.22 20.1307 260.46C20.6513 261.013 21.19 261.403 21.6422 261.633C22.0809 261.855 22.3049 261.863 22.3049 261.863H74.1859V277.048H22.3041C16.7751 277.048 12.0881 274.096 9.03926 270.859C5.97493 267.606 3.44003 262.89 3.44003 257.681V238.376H3.39062V27.4387C3.39062 18.0639 11.0275 10.4077 20.4426 10.4077H345.991C355.407 10.4077 363.043 18.0639 363.043 27.4387V198.81H347.823V27.4387C347.823 26.4216 346.972 25.5926 345.991 25.5926H20.4426ZM35.0942 42.5357H330.992V174.974H315.771V57.7206H50.3147V227.064H269.687V242.249H35.0942V42.5357ZM286.845 112.23V157.785H271.625V112.23H286.845ZM226.271 120.781L266.859 161.274L256.096 172.011L215.508 131.518L226.271 120.781ZM206.938 183.093H256.404V198.278H206.938V183.093ZM283.028 183.951L396.355 244.528L370.608 266.697L396.636 301.888L356.673 331.404L330.895 296.821L304.259 314.109L283.028 183.951ZM303 211.854L315.531 288.677L334.578 276.315L359.823 310.184L375.366 298.705L349.989 264.393L369.638 247.474L303 211.854ZM102.794 261.863H269.693V277.048H229.206C229.597 281.625 230.311 289.263 231.333 296.823C231.973 301.558 232.716 306.128 233.545 309.84C233.96 311.698 234.372 313.23 234.767 314.405C235.133 315.497 235.383 315.969 235.429 316.056C235.437 316.071 235.439 316.075 235.434 316.068L222.889 324.666C221.723 322.973 220.919 320.969 220.335 319.229C219.714 317.381 219.17 315.298 218.688 313.142C217.725 308.826 216.915 303.776 216.249 298.852C215.078 290.189 214.301 281.5 213.933 277.048H151.96C151.053 286.551 149.677 296.702 148.039 305.836C146.768 312.925 145.269 319.824 143.579 325.408H246.99V340.593H119.574V325.408H127.482C129.211 321.299 131.231 313.339 133.057 303.162C134.54 294.893 135.801 285.715 136.668 277.048H102.794V261.863Z" fill="#242424"/>
</svg>
