<svg width="398" height="350" viewBox="0 0 398 350" fill="none" xmlns="http://www.w3.org/2000/svg">
<path fill-rule="evenodd" clip-rule="evenodd" d="M363.024 21.2859C365.784 23.8786 366.477 27.9938 364.718 31.3476L341.509 75.5981L366.49 80.7953L369.799 95.8196L354.223 107.383L374.454 112.734L370.142 129.036L332.977 119.205L330.107 104.285L344.664 93.4781L327.135 89.8314L321.386 77.6606L335.691 50.3861L303.628 69.8541L303.674 70.9093L301.752 70.9933L300.041 72.0322L299.471 71.093L286.828 71.6456L285.537 42.1198L269.182 47.2923L264.097 31.2147L290.938 22.7259L301.904 30.3966L302.788 50.6366L352.876 20.2246C356.113 18.259 360.264 18.6931 363.024 21.2859ZM208.305 194.915L228.389 214.999L263.97 179.419C269.516 173.872 269.516 164.88 263.97 159.334C258.424 153.788 249.432 153.788 243.885 159.334L228.39 174.83L212.894 159.334C207.347 153.788 198.355 153.788 192.809 159.334C187.263 164.88 187.263 173.872 192.809 179.418L208.305 194.915ZM232.754 148.202L228.39 152.566L224.025 148.202C212.331 136.508 193.371 136.508 181.677 148.202C169.983 159.896 169.983 178.856 181.677 190.55L186.042 194.914L228.389 237.263L275.102 190.55C286.796 178.856 286.796 159.897 275.102 148.202C263.407 136.508 244.448 136.508 232.754 148.202ZM64.3208 116.686H80.3833V95.4836C80.3833 83.015 90.5371 72.8448 102.986 72.8448H227.7C236.821 72.8448 244.967 78.2459 248.523 86.6349L251.679 94.0471L266.536 87.7266L263.381 80.3145C257.3 65.9498 243.303 56.6989 227.757 56.6989H102.986C81.6453 56.6989 64.3208 74.1089 64.3208 95.4261V116.686ZM265.392 306.644C268.547 308.655 272.046 309.689 275.603 309.689C279.045 309.689 282.487 308.712 285.585 306.816C291.838 302.909 295.222 295.957 294.419 288.659L293.157 277.57C313.522 276.478 329.757 259.528 329.757 238.9H313.694C313.694 251.369 303.54 261.539 291.092 261.539H284.208L276.234 270.502L278.471 290.441C278.644 291.992 277.726 292.796 277.152 293.141C276.578 293.543 275.431 293.946 274.169 293.141L227.358 262.86L222.998 261.596H166.321C157.66 261.596 149.917 256.772 146.073 249.017L146.074 249.013C144.525 245.853 143.722 242.463 143.722 238.958V133.291C143.722 127.258 146.074 121.57 150.319 117.318C154.564 113.066 160.243 110.71 166.267 110.71H258.282V110.71H291.035C292.239 110.71 293.444 110.824 294.649 110.997C305.606 112.778 313.58 122.201 313.58 133.348V213.791H329.642V133.348C329.642 124.097 326.315 115.134 320.291 108.124C314.383 101.171 306.122 96.5746 297.173 95.1382C295.108 94.7934 293.042 94.621 290.977 94.621H166.206C155.88 94.621 146.185 98.6432 138.9 105.94C131.614 113.238 127.598 122.948 127.598 133.291V238.957C127.598 242.526 128.06 246.013 128.995 249.385L119.915 255.277C118.595 256.081 117.505 255.621 116.932 255.277C116.358 254.932 115.44 254.127 115.612 252.576L117.044 239.82H117.901V223.731H102.986C90.5371 223.731 80.3833 213.561 80.3833 201.092V135.647H64.3208V201.092C64.3208 221.765 80.58 238.676 100.902 239.764L99.6645 250.795C98.8614 258.149 102.246 265.102 108.499 268.952C111.597 270.848 114.981 271.825 118.423 271.825C121.923 271.825 125.479 270.79 128.692 268.779L136.497 263.731C143.738 272.507 154.502 277.685 166.206 277.685H220.532L265.392 306.644ZM29.0694 228.374L72.4419 246.245L56.5349 261.357L73.1902 265.437C75.8308 266.084 77.9975 267.965 79.0094 270.488C80.0213 273.012 79.7542 275.868 78.2921 278.161L65.3425 298.462L92.5579 285.15C95.1377 283.888 98.1824 284.026 100.637 285.517C103.092 287.007 104.62 289.644 104.691 292.515L104.988 304.505L118.954 292.74L129.819 305.636L102.427 328.712C99.9472 330.801 96.4899 331.283 93.5337 329.952C90.5775 328.621 88.6461 325.713 88.5658 322.473L88.1594 306.073L45.8095 326.788C42.416 328.448 38.3326 327.648 35.8163 324.83C33.3 322.012 32.9651 317.865 34.9966 314.68L57.7462 279.015L22.543 270.39L41.9752 251.93L22.6452 243.965L29.0694 228.374Z" fill="#242424"/>
</svg>
