<svg width="379" height="346" viewBox="0 0 379 346" fill="none" xmlns="http://www.w3.org/2000/svg">
<path d="M243.451 86.5164C225.955 80.2103 206.575 89.2849 200.269 106.78C193.963 124.276 203.038 143.656 220.533 149.962L225.494 136.196C215.573 132.62 210.459 121.661 214.035 111.741C217.611 101.82 228.57 96.7061 238.49 100.282C243.297 102.012 247.142 105.511 249.295 110.126C251.448 114.74 251.718 119.931 249.949 124.737C247.411 131.736 240.951 136.696 233.53 137.273L234.722 151.846C247.834 150.769 259.216 142.079 263.715 129.698C266.791 121.238 266.368 112.048 262.523 103.897C258.677 95.7448 251.91 89.5541 243.451 86.4779" fill="#242424"/>
<path d="M224.301 330.454H84.1445V345.104H224.301V330.454Z" fill="#242424"/>
<path d="M263.944 307.998C257.715 302.922 249.871 300.884 240.489 301.923C238.066 294.963 234.413 289.656 229.53 286.08C224.493 282.389 218.264 280.428 211.996 280.62L212.419 295.232C215.38 295.155 218.456 296.116 220.84 297.847C224.147 300.269 226.531 304.845 227.915 311.42L236.836 309.536L238.451 317.073C245.488 315.573 250.909 316.342 254.639 319.303C258.023 322.033 259.868 326.493 260.868 330.492H233.068V345.142H269.135L276.441 337.875C276.441 337.067 276.441 318.265 263.906 307.998" fill="#242424"/>
<path d="M94.4883 294.194L103.64 293.925V293.655C103.64 293.463 103.64 293.233 103.64 293.04C103.64 284.235 108.485 275.391 116.29 270.008C123.212 265.201 131.363 264.048 138.592 266.778L143.783 253.089C131.979 248.629 118.944 250.397 107.985 257.972C98.6796 264.394 92.1812 274.237 89.9126 284.812C78.1079 282.082 64.919 284.889 55.6521 292.617C41.8864 304.076 38.5027 325.532 47.9234 341.489L60.5355 334.03C54.8446 324.417 56.8826 310.574 65.0344 303.845C72.1479 297.924 82.9913 296.616 91.3737 300.692L94.5652 294.155L94.4883 294.194Z" fill="#242424"/>
<path d="M279.053 2.76852L272.324 6.34452L269.671 0C268.095 0.653678 230.258 16.6111 197.805 54.1784C178.656 76.3266 165.429 101.397 158.469 128.698C154.855 142.925 152.932 157.729 152.74 173.071L146.203 165.534L106.098 200.41L104.022 203.448L93.678 232.017C92.3707 235.67 93.1782 239.669 95.7929 242.515C97.7924 244.668 100.522 245.86 103.368 245.86C104.291 245.86 105.214 245.745 106.098 245.475L147.856 234.055L144.011 219.944L110.251 229.172L117.095 210.215L152.74 179.223C153.047 197.911 155.854 217.367 161.161 237.439L145.472 263.24L151.74 267.047L149.241 273.93L195.806 290.771L205.534 284.965L209.802 256.396L209.917 256.549C227.721 243.976 242.986 230.172 255.598 215.291L263.019 261.01L256.175 279.967L236.488 251.82L224.491 260.202L248.907 295.155C250.868 297.962 253.983 299.538 257.328 299.538C257.79 299.538 258.251 299.538 258.713 299.462C262.558 298.962 265.749 296.385 267.057 292.732L277.4 264.163L277.746 260.51L269.325 208.793L259.597 210.369C269.056 198.487 276.9 185.952 283.091 172.802C295.049 147.308 300.74 119.546 300.048 90.2845C298.856 40.6819 279.746 4.34504 278.938 2.80697M192.46 273.891L162.699 263.125L204.265 194.642L192.422 273.853L192.46 273.891ZM269.825 166.842C257.713 192.489 238.641 215.675 212.917 236.016L221.261 180.031L210.187 178.377L200.612 172.533L172.081 219.482C165.698 188.452 165.89 159.267 172.619 132.543C178.925 107.511 191.038 84.4783 208.533 64.0605C209.494 62.9069 210.494 61.8303 211.455 60.7152C217.069 65.4063 223.106 69.5591 229.566 73.0966L236.603 60.2538C231.335 57.3699 226.336 53.9861 221.722 50.1794C240.756 32.0302 259.828 21.0715 269.248 16.2651C273.555 26.3009 281.091 46.7188 284.206 72.4429C272.786 72.4814 261.52 70.5203 250.599 66.5598C248.523 65.7908 246.408 64.9833 244.409 64.0605L238.525 77.4416C240.833 78.4414 243.255 79.4411 245.639 80.2871C258.059 84.7859 270.902 87.0546 283.898 87.0546C284.398 87.0546 284.898 87.0546 285.436 87.0546C285.475 88.3619 285.552 89.7077 285.552 91.0535C286.129 117.931 280.822 143.425 269.825 166.765" fill="#242424"/>
</svg>
