<svg width="398" height="350" viewBox="0 0 398 350" fill="none" xmlns="http://www.w3.org/2000/svg">
<path d="M114.624 216.711L111.07 233.42L127.248 236.852L132.926 210.134L124.837 200.125H101.878C106.004 189.177 112.459 172.305 117.647 159.109C118.056 159.6 118.505 160.049 118.995 160.539L119.731 161.234C131.088 170.099 148.491 174.96 161.89 165.932C169.898 160.539 173.288 151.797 170.796 143.136C168.345 134.557 159.113 129.042 146.081 128.388C140.116 128.102 133.58 128.879 127.37 130.799C128.392 126.713 130.271 122.097 133.008 117.072C139.912 104.245 149.676 93.6639 149.757 93.5414L143.711 87.9037L137.665 82.2661C136.153 83.9002 108.17 114.417 110.008 140.808C106.985 143.831 104.452 147.426 102.818 151.593C94.4024 172.918 82.3101 205.109 82.1875 205.436L89.9086 216.63H114.624V216.711ZM140.77 145.056C149.308 144.362 154.333 146.772 154.946 147.752C155.518 149.836 154.047 151.347 152.658 152.287C148.042 155.392 139.381 155.433 130.352 148.57C130.066 148.284 129.821 147.998 129.576 147.671C133.253 146.159 137.257 145.342 140.77 145.056Z" fill="#242424"/>
<path d="M251.603 57.1415C278.851 60.1646 301.075 80.2231 306.958 106.941L323.094 103.386C315.7 69.724 287.716 44.5181 253.441 40.678C242.656 39.4524 231.953 40.392 221.617 43.4968L226.315 59.3475C234.527 56.8964 243.024 56.1611 251.603 57.1007" fill="#242424"/>
<path d="M338.784 12H192.491L184.239 20.2522V40.515H200.784V28.5044H330.531V204.047H307.899V136.845L299.647 128.593H214.878V59.0619L206.626 50.8098H60.2522L52 59.0619V251.15L60.2522 259.402H206.545L214.797 251.15V145.138H291.272V320.681H229.912L234.202 270.391L219.005 265.203C211.161 277.295 183.3 274.681 174.189 272.802L170.84 288.979C171.289 289.061 182.115 291.267 194.697 290.899C202.909 290.654 210.14 289.347 216.145 287.018L213.285 320.64H161.444V277.99H144.898V328.892H153.15V337.144H299.443V328.892H307.695V220.551H338.579V212.299H346.832V20.2522H338.579V12H338.784ZM198.292 242.898H68.5452V67.355H198.292V242.898Z" fill="#242424"/>
</svg>
