<svg width="379" height="346" viewBox="0 0 379 346" fill="none" xmlns="http://www.w3.org/2000/svg">
<g clip-path="url(#clip0_1263_879)">
<path fill-rule="evenodd" clip-rule="evenodd" d="M309.913 28.8488C297.767 27.2447 285.522 33.7812 280.404 45.6518C276.51 54.6078 277.659 64.481 282.519 72.1174L295.532 63.7823C293.298 60.272 292.82 55.8278 294.56 51.8351L294.566 51.8202L294.573 51.8053C297.367 45.3186 304.87 42.3553 311.308 45.1575C317.761 47.9662 320.73 55.5108 317.945 61.9506C316.258 65.8423 312.944 68.4446 309.139 69.3257L312.61 84.4179C321.032 82.4682 328.406 76.6647 332.107 68.1192L332.109 68.1157C337.24 56.2521 333.586 42.7919 324.084 34.9978L334.842 10.0758L320.673 3.9209L309.913 28.8488ZM17.2773 26.3427L24.9971 18.5983H212.829L220.549 26.3456L220.511 128.326L230.812 119.244C234.337 123.267 238.145 126.984 242.194 130.378L293.119 68.5505L299.071 73.4843L306.722 74.4642L296.6 153.995C301.83 154.634 307.132 154.877 312.461 154.705L312.956 170.186C306.839 170.383 300.755 170.105 294.753 169.373L286.811 236.341L362.325 223.231L371.248 229.54L380.612 283.758L374.322 292.711L46.7177 349.63L37.7937 343.321L28.4299 289.06L34.7201 280.108L107.504 267.472H24.9971L17.2773 259.727V26.3427ZM165.978 273.039L152.978 275.296L154.692 285.705L139.459 288.229L137.764 277.937L124.393 280.259L128.049 302.34L112.818 304.879L109.179 282.9L96.1671 285.159L97.7825 294.823L82.5555 297.385L80.9535 287.8L67.5716 290.124L71.1003 311.434L55.8695 313.972L52.3579 292.765L44.9601 294.049L51.6899 333.047L364.081 278.771L357.352 239.813L351.669 240.8L355.783 265.938L340.548 268.448L336.455 243.442L323.422 245.704L325.544 258.36L310.318 260.929L308.208 248.346L294.845 250.666L298.871 275.02L283.639 277.554L279.631 253.307L266.601 255.569L268.595 267.499L253.369 270.061L251.388 258.21L238.013 260.533L241.918 284.111L226.687 286.649L222.799 263.174L209.814 265.428L211.65 276.615L196.415 279.132L194.6 268.07L181.191 270.398L184.969 293.249L169.738 295.783L165.978 273.039ZM220.466 247.86L270.936 239.098L279.544 166.508C257.031 160.737 236.39 148.462 220.51 130.922L220.5 156.69L228.25 147.266L240.16 157.123L224.04 176.725L220.494 173.79L220.466 247.86ZM281.419 150.982L288.029 99.0464L254.776 139.418C263.075 144.491 272.049 148.386 281.419 150.982ZM205.026 250.541L196.717 251.983H32.7168V34.0871H205.106L205.026 250.541ZM119.192 65.0576H47.4887V49.5688H119.192V65.0576ZM179.736 90.7947H47.4887V75.3059H179.736V90.7947ZM50.2016 110.158H65.6411V205.24L102.951 152.839H115.515L130.841 174.365L167.25 126.883L179.487 136.326L136.73 192.088L124.33 191.868L109.233 170.665L78.4223 213.938H181.917V229.427H50.2016V110.158Z" fill="#242424"/>
</g>
<defs>
<clipPath id="clip0_1263_879">
<path d="M0 7.30554C0 3.2708 3.27081 0 7.30556 0H371.694C375.729 0 379 3.27081 379 7.30556V338.694C379 342.729 375.729 346 371.694 346H7.30554C3.2708 346 0 342.729 0 338.694V7.30554Z" fill="white"/>
</clipPath>
</defs>
</svg>
