<svg width="379" height="346" viewBox="0 0 379 346" fill="none" xmlns="http://www.w3.org/2000/svg">
<g clip-path="url(#clip0_1264_892)">
<path fill-rule="evenodd" clip-rule="evenodd" d="M77.5407 28.5557L85.208 20.8936H267.479L275.146 28.5557V147.516H285.928C286.386 147.516 286.841 147.53 287.293 147.559V107.866C287.293 96.7468 296.291 87.7552 307.417 87.7552C318.543 87.7552 327.541 96.7468 327.541 107.866V130.281C327.541 141.4 318.543 150.392 307.417 150.392V135.067C310.074 135.067 312.206 132.937 312.206 130.281V107.866C312.206 105.21 310.074 103.08 307.417 103.08C304.76 103.08 302.628 105.21 302.628 107.866V154.707C302.628 155.04 302.606 155.368 302.565 155.689C304.574 158.29 305.995 161.389 306.614 164.806L306.616 164.814L326.78 277.548C327.08 279.234 327.172 280.9 327.074 282.524L331.017 304.579L331.021 304.6C333.087 316.348 324.041 327.107 312.126 327.107H38.0779C26.0994 327.107 17.12 316.328 19.1826 304.6L34.2857 307.253C33.8655 309.642 35.6734 311.782 38.0779 311.782H312.126C314.504 311.782 316.33 309.628 315.92 307.262C315.919 307.259 315.918 307.256 315.918 307.253L314.69 300.384C312.077 301.555 309.171 302.21 306.09 302.21H278.651V286.886H306.09C308.722 286.886 310.868 285.129 311.547 282.807L290.666 166.022L290.999 165.963C290.046 164.076 288.108 162.84 285.928 162.84H64.2327C61.4948 162.84 59.1373 164.79 58.6369 167.531C58.6364 167.533 58.636 167.536 58.6356 167.538L38.4779 280.234C38.4777 280.235 38.4776 280.235 38.4775 280.236C37.8623 283.697 40.5255 286.886 44.0708 286.886H252.025V302.21H44.0708C31.008 302.21 21.0864 290.428 23.3805 277.548L43.545 164.814L43.5467 164.806C44.5052 159.52 47.3823 154.992 51.3858 151.898V120.314H66.7205V147.516H77.5407V28.5557ZM259.811 144.949V36.2179H92.8753V144.949H259.811ZM361.375 39.7289C363.807 42.1536 364.328 45.8991 362.651 48.8951L348.269 74.5782L379.202 88.2663L342.887 113.632L334.102 101.072L348.128 91.2751L334.363 85.184C332.39 84.3109 330.876 82.6475 330.194 80.6019C329.511 78.5563 329.723 76.318 330.776 74.4363L335.948 65.2006L322.906 72.5353C321.016 73.5983 318.764 73.8116 316.708 73.1223C314.651 72.433 312.983 70.9055 312.117 68.9184L309.657 63.2761L306.924 68.7033L293.226 61.8145L303.308 41.7947C304.644 39.1403 307.396 37.4976 310.369 37.5798C313.341 37.6621 315.998 39.4544 317.186 42.1786L322.784 55.0196L352.199 38.4762C355.193 36.7923 358.942 37.3042 361.375 39.7289ZM116.222 51.997L127.8 61.4425L138.278 52.895L148.809 61.4505L159.306 52.8869L169.794 61.4425L180.272 52.895L190.802 61.4505L201.29 52.895L211.83 61.4586L222.36 52.903L243.677 70.2218L234.003 82.1122L222.36 72.6529L211.83 81.2084L201.309 72.6609L190.822 81.2164L180.291 72.6609L169.794 81.2245L159.306 72.6689L148.828 81.2164L138.298 72.6609L127.8 81.2245L106.525 63.8681L116.222 51.997ZM43.814 103.08C41.1567 103.08 39.0246 105.21 39.0246 107.866V130.281C39.0246 132.937 41.1567 135.067 43.814 135.067V150.392C32.6876 150.392 23.69 141.4 23.69 130.281V107.866C23.69 96.7468 32.6876 87.7552 43.814 87.7552C54.9404 87.7552 63.9381 96.7468 63.9381 107.866H48.6034C48.6034 105.21 46.4713 103.08 43.814 103.08ZM116.222 94.7747L127.8 104.22L138.278 95.6728L148.809 104.228L159.306 95.6647L169.794 104.22L180.272 95.6728L190.802 104.228L201.29 95.6728L211.83 104.236L222.36 95.6808L243.677 113L234.003 124.89L222.36 115.431L211.83 123.986L201.309 115.439L190.822 123.994L180.291 115.439L169.794 124.002L159.306 115.447L148.828 123.994L138.298 115.439L127.8 124.002L106.525 106.646L116.222 94.7747ZM82.554 187.181C78.7977 187.181 75.7527 190.224 75.7527 193.977C75.7527 197.731 78.7977 200.774 82.554 200.774C86.3103 200.774 89.3553 197.731 89.3553 193.977C89.3553 190.224 86.3103 187.181 82.554 187.181ZM60.418 193.977C60.418 181.76 70.3286 171.856 82.554 171.856C94.7793 171.856 104.69 181.76 104.69 193.977C104.69 206.194 94.7793 216.098 82.554 216.098C70.3286 216.098 60.418 206.194 60.418 193.977ZM128.828 187.181C125.072 187.181 122.027 190.224 122.027 193.977C122.027 197.731 125.072 200.774 128.828 200.774C132.584 200.774 135.629 197.731 135.629 193.977C135.629 190.224 132.584 187.181 128.828 187.181ZM106.692 193.977C106.692 181.76 116.603 171.856 128.828 171.856C141.053 171.856 150.964 181.76 150.964 193.977C150.964 206.194 141.053 216.098 128.828 216.098C116.603 216.098 106.692 206.194 106.692 193.977ZM175.102 187.181C171.346 187.181 168.301 190.224 168.301 193.977C168.301 197.731 171.346 200.774 175.102 200.774C178.858 200.774 181.903 197.731 181.903 193.977C181.903 190.224 178.858 187.181 175.102 187.181ZM152.966 193.977C152.966 181.76 162.877 171.856 175.102 171.856C187.327 171.856 197.238 181.76 197.238 193.977C197.238 206.194 187.327 216.098 175.102 216.098C162.877 216.098 152.966 206.194 152.966 193.977ZM221.376 187.181C217.62 187.181 214.574 190.224 214.574 193.977C214.574 197.731 217.62 200.774 221.376 200.774C225.132 200.774 228.177 197.731 228.177 193.977C228.177 190.224 225.132 187.181 221.376 187.181ZM199.24 193.977C199.24 181.76 209.15 171.856 221.376 171.856C233.601 171.856 243.512 181.76 243.512 193.977C243.512 206.194 233.601 216.098 221.376 216.098C209.15 216.098 199.24 206.194 199.24 193.977ZM267.65 187.181C263.893 187.181 260.848 190.224 260.848 193.977C260.848 197.731 263.893 200.774 267.65 200.774C271.406 200.774 274.451 197.731 274.451 193.977C274.451 190.224 271.406 187.181 267.65 187.181ZM245.514 193.977C245.514 181.76 255.424 171.856 267.65 171.856C279.875 171.856 289.786 181.76 289.786 193.977C289.786 206.194 279.875 216.098 267.65 216.098C255.424 216.098 245.514 206.194 245.514 193.977ZM82.554 243.348C78.7977 243.348 75.7527 246.391 75.7527 250.145C75.7527 253.898 78.7977 256.941 82.554 256.941C86.3103 256.941 89.3553 253.898 89.3553 250.145C89.3553 246.391 86.3102 243.348 82.554 243.348ZM60.418 250.145C60.418 237.927 70.3286 228.023 82.554 228.023C94.7794 228.023 104.69 237.927 104.69 250.145C104.69 262.362 94.7793 272.266 82.554 272.266C70.3286 272.266 60.418 262.362 60.418 250.145ZM128.828 243.348C125.072 243.348 122.027 246.391 122.027 250.145C122.027 253.898 125.072 256.941 128.828 256.941C132.584 256.941 135.629 253.898 135.629 250.145C135.629 246.391 132.584 243.348 128.828 243.348ZM106.692 250.145C106.692 237.927 116.603 228.023 128.828 228.023C141.053 228.023 150.964 237.927 150.964 250.145C150.964 262.362 141.053 272.266 128.828 272.266C116.603 272.266 106.692 262.362 106.692 250.145ZM175.102 243.348C171.346 243.348 168.301 246.391 168.301 250.145C168.301 253.898 171.346 256.941 175.102 256.941C178.858 256.941 181.903 253.898 181.903 250.145C181.903 246.391 178.858 243.348 175.102 243.348ZM152.966 250.145C152.966 237.927 162.876 228.023 175.102 228.023C187.327 228.023 197.238 237.927 197.238 250.145C197.238 262.362 187.327 272.266 175.102 272.266C162.877 272.266 152.966 262.362 152.966 250.145ZM221.376 243.348C217.62 243.348 214.574 246.391 214.574 250.145C214.574 253.898 217.62 256.941 221.376 256.941C225.132 256.941 228.177 253.898 228.177 250.145C228.177 246.391 225.132 243.348 221.376 243.348ZM199.24 250.145C199.24 237.927 209.15 228.023 221.376 228.023C233.601 228.023 243.512 237.927 243.512 250.145C243.512 262.362 233.601 272.266 221.376 272.266C209.15 272.266 199.24 262.362 199.24 250.145ZM267.65 243.348C263.893 243.348 260.848 246.391 260.848 250.145C260.848 253.898 263.893 256.941 267.65 256.941C271.406 256.941 274.451 253.898 274.451 250.145C274.451 246.391 271.406 243.348 267.65 243.348ZM245.514 250.145C245.514 237.927 255.424 228.023 267.65 228.023C279.875 228.023 289.786 237.927 289.786 250.145C289.786 262.362 279.875 272.266 267.65 272.266C255.424 272.266 245.514 262.362 245.514 250.145Z" fill="#282D33"/>
</g>
<defs>
<clipPath id="clip0_1264_892">
<path d="M0 7.30554C0 3.2708 3.27081 0 7.30556 0H371.694C375.729 0 379 3.27081 379 7.30556V338.694C379 342.729 375.729 346 371.694 346H7.30554C3.2708 346 0 342.729 0 338.694V7.30554Z" fill="white"/>
</clipPath>
</defs>
</svg>
